<svg xmlns="http://www.w3.org/2000/svg" data-name="Layer 1" viewBox="0 0 100 125" x="0px" y="0px"><title>heart</title><path d="M71.32,11.51A23.66,23.66,0,0,1,88,51.93l-1,1L61.19,78.79l-4.6,4.61h0l-1.68,1.68-2.38,2.38a3.63,3.63,0,0,1-5.1,0L45,85l-0.2-.21,0,0,0,0-6-6-1.48-1.46L13,53l-1-1A23.67,23.67,0,0,1,28.69,11.51a23.5,23.5,0,0,1,16.72,6.92l1,1L50,23l3.54-3.54,1-1a23.55,23.55,0,0,1,16.77-6.92m0-5A28.62,28.62,0,0,0,51,14.9l-1,1-1-1A28.68,28.68,0,0,0,8.39,55.46l1,1L35.24,82.32h0l6,6,0.1,0.11L43.9,91a8.63,8.63,0,0,0,12.17,0l2.38-2.37h0l6.28-6.28h0L90.55,56.5l1-1a28.67,28.67,0,0,0-20.26-49h0Z"/></svg>