<?xml version="1.0" standalone="no"?><!-- Generator: Gravit.io --><svg xmlns="http://www.w3.org/2000/svg" xmlns:xlink="http://www.w3.org/1999/xlink" style="isolation:isolate" viewBox="0 0 40 40" width="40" height="40"><defs><clipPath id="_clipPath_Bjj3T8W0Qg2ijcImIzIHyCRqgE3b2Pqk"><rect width="100" height="125"/></clipPath></defs><g clip-path="url(#_clipPath_Bjj3T8W0Qg2ijcImIzIHyCRqgE3b2Pqk)"><g id="Group"><g id="Group"><g id="Group"><path d=" M 50 3 C 77.313 3 99.45 25.247 99.45 52.45 C 99.45 79.763 77.203 101.9 50 101.9 C 22.797 101.9 0.55 79.763 0.55 52.45 C 0.55 25.137 22.687 3 50 3 Z  M 94.604 52.45 C 94.604 27.89 74.56 7.846 50 7.846 C 25.44 7.846 5.396 27.89 5.396 52.45 C 5.396 77.01 25.44 97.054 50 97.054 C 74.56 97.054 94.604 77.01 94.604 52.45 Z " fill="rgb(0,0,0)"/><path d=" M 73.789 40.225 L 73.789 48.155 C 73.789 49.807 72.467 51.239 70.705 51.239 C 68.943 51.239 67.621 49.917 67.621 48.155 L 67.621 40.225 C 67.621 38.573 68.943 37.141 70.705 37.141 C 72.467 37.141 73.789 38.573 73.789 40.225 Z " fill="rgb(0,0,0)"/><path d=" M 68.502 72.604 C 69.494 73.596 69.494 75.138 68.502 76.019 C 63.657 80.864 57.159 83.618 50.441 83.618 L 49.559 83.618 C 42.841 83.618 36.454 80.975 31.498 76.019 C 30.506 75.027 30.506 73.486 31.498 72.604 C 32.489 71.613 34.031 71.613 34.912 72.604 C 38.877 76.569 44.053 78.772 49.559 78.772 L 50.441 78.772 C 55.947 78.772 61.123 76.569 65.088 72.604 C 65.969 71.723 67.511 71.723 68.502 72.604 Z " fill="rgb(0,0,0)"/><path d=" M 53.414 40.225 L 53.414 56.965 C 53.414 61.921 49.449 65.886 44.493 65.886 L 43.943 65.886 C 42.621 65.886 41.52 64.785 41.52 63.463 C 41.52 62.142 42.621 61.04 43.943 61.04 L 44.493 61.04 C 46.696 61.04 48.568 59.168 48.568 56.965 L 48.568 40.225 C 48.568 38.904 49.67 37.802 50.991 37.802 C 52.313 37.802 53.414 38.904 53.414 40.225 Z " fill="rgb(0,0,0)"/><path d=" M 30.727 40.225 L 30.727 48.155 C 30.727 49.807 29.405 51.239 27.643 51.239 C 25.991 51.239 24.559 49.917 24.559 48.155 L 24.559 40.225 C 24.559 38.573 25.881 37.141 27.643 37.141 C 29.405 37.252 30.727 38.573 30.727 40.225 Z " fill="rgb(0,0,0)"/></g></g></g></g></svg>